<?xml version="1.0" ?><svg style="enable-background:new 0 0 48 48;" version="1.1" viewBox="0 0 48 48" xml:space="preserve" xmlns="http://www.w3.org/2000/svg" xmlns:xlink="http://www.w3.org/1999/xlink"><g id="Icons"><g id="Icons_31_"><g><radialGradient cx="24" cy="-322" gradientTransform="matrix(1 0 0 -1 0 -298)" gradientUnits="userSpaceOnUse" id="SVGID_1_" r="15.345"><stop offset="0.09184" style="stop-color:#FAF707"/><stop offset="0.72959" style="stop-color:#FFFC00"/></radialGradient><path d="M24.005,8.655c-8.48,0-15.35,6.87-15.35,15.35c0,8.47,6.87,15.34,15.35,15.34     c8.47,0,15.34-6.87,15.34-15.34C39.345,15.525,32.475,8.655,24.005,8.655z M29.855,30.505c-1.49-0.5-2.68-0.13-3.8,0.72     c-0.64,0.5-1.34,0.76-2.05,0.76c-0.71,0-1.41-0.26-2.06-0.76c-1.12-0.85-2.3-1.22-3.8-0.72c0.02-1.74-1.7-1.07-2.55-1.9     c1.68-0.52,2.84-1.51,3.59-2.96c0.55-1.07,0.35-1.55-0.78-2c-0.38-0.16-0.74-0.35-1.11-0.53c0.03-0.12,0.06-0.24,0.1-0.35     c0.38,0.05,0.77,0.1,1.14,0.16c0.85,0.16,1.13-0.08,1.07-0.91c-0.03-0.47-0.06-0.94-0.08-1.4c-0.08-1.77,0.56-3.19,2.15-4     c0.77-0.39,1.55-0.59,2.33-0.6c0.78,0.01,1.55,0.21,2.32,0.6c1.6,0.81,2.24,2.23,2.16,4c-0.02,0.46-0.05,0.93-0.09,1.4     c-0.05,0.83,0.23,1.07,1.07,0.91c0.38-0.06,0.77-0.11,1.14-0.16c0.04,0.11,0.07,0.23,0.11,0.35c-0.38,0.18-0.74,0.37-1.12,0.53     c-1.12,0.45-1.33,0.93-0.78,2c0.76,1.45,1.91,2.44,3.59,2.96C31.565,29.435,29.835,28.765,29.855,30.505z" style="fill:url(#SVGID_1_);"/></g></g></g></svg>