<svg height="511pt" viewBox="0 -67 511.99998 511" width="511pt" xmlns="http://www.w3.org/2000/svg"><path d="m136.933594 303.308594v-30.804688c0-95.609375 77.503906-173.117187 173.109375-173.117187s173.109375 77.507812 173.109375 173.117187v40.722656c0 31.660157-25.664063 57.324219-57.320313 57.324219h-356.136719c37.136719 0 67.238282-30.105469 67.238282-67.242187zm0 0" fill="#ff8c42"/><path d="m101.304688 154.648438c0 25.902343-20.996094 46.902343-46.902344 46.902343-25.902344 0-46.902344-21-46.902344-46.902343 0-25.90625 21-46.90625 46.902344-46.90625 25.90625 0 46.902344 21 46.902344 46.90625zm0 0" fill="#f54432"/><path d="m341.421875 54.90625c0 25.902344-21 46.902344-46.902344 46.902344-25.90625 0-46.902343-21-46.902343-46.902344s20.996093-46.902344 46.902343-46.902344c25.902344 0 46.902344 21 46.902344 46.902344zm0 0" fill="#f54432"/><path d="m504.472656 257.984375c0 25.90625-21 46.90625-46.90625 46.90625-25.902344 0-46.902344-21-46.902344-46.90625 0-25.902344 21-46.902344 46.902344-46.902344 25.90625 0 46.90625 21 46.90625 46.902344zm0 0" fill="#db2a17"/><path d="m456.492188 162.382812c-6.6875-4.4375-9.894532-12.398437-8.308594-20.265624 2.410156-11.960938.1875-24.84375-7.222656-35.726563-9.980469-14.652344-26.785157-21.871094-43.265626-20.316406-7.898437.742187-15.234374-3.757813-18.632812-10.925781-7.53125-15.886719-23.710938-26.875-42.460938-26.875-25.945312 0-46.980468 21.035156-46.980468 46.984374 0 25.945313 114.992187 153.277344 140.9375 153.277344 25.949218 0 46.980468-21.035156 46.980468-46.980468 0-16.359376-8.363281-30.761719-21.046874-39.171876zm0 0" fill="#e7896e"/><path d="m411.535156 201.019531c-9.734375-5-15.261718-15.800781-12.75-26.449219 4.066406-17.246093 1.546875-36.042968-8.539062-52.289062-14.390625-23.191406-40.273438-34.886719-65.714844-32.3125-11.167969 1.132812-21.542969-5.433594-25.3125-16.007812-6.449219-18.105469-20.375-33.445313-39.648438-41.085938-25.367187-10.054688-53.125-4.039062-72.027343 13.175781-8.410157 7.65625-21.222657 8.328125-30.238281 1.394531-12.390626-9.53125-28.105469-14.957031-45.113282-14.226562-35.675781 1.535156-64.652344 30.652344-66.019531 66.339844-1.507813 39.410156 29.992187 71.832031 69.0625 71.832031 26.394531 0 226.589844 160.261719 264.761719 160.261719s69.117187-30.945313 69.117187-69.121094c0-26.808594-15.265625-50.050781-37.578125-61.511719zm0 0" fill="#73da8c"/><path d="m353.921875 303.308594v-30.804688c0-95.609375-77.503906-173.117187-173.109375-173.117187s-173.109375 77.507812-173.109375 173.117187v40.722656c0 31.660157 25.664063 57.324219 57.320313 57.324219h356.136718c-37.136718 0-67.238281-30.105469-67.238281-67.242187zm0 0" fill="#ffc7a4"/><path d="m73.355469 288.429688c-29.242188-87.199219 26.816406-169.152344 26.816406-169.152344-54.976563 29.003906-92.46875 86.742187-92.46875 153.226562v40.722656c0 31.660157 25.664063 57.324219 57.320313 57.324219h93.066406c-30.914063-24.167969-64.605469-22.09375-84.734375-82.121093zm0 0" fill="#ffaa75"/><path d="m180.8125 329.632812c-15.519531 0-28.097656-12.578124-28.097656-28.097656v-20.429687c0-4.238281 3.433594-7.671875 7.671875-7.671875h40.855469c4.238281 0 7.667968 3.433594 7.667968 7.671875v20.429687c0 15.519532-12.578125 28.097656-28.097656 28.097656zm0 0" fill="#454545"/><path d="m116.792969 301.535156c0-13.183594-13.417969-23.871094-29.972657-23.871094-16.550781 0-29.96875 10.6875-29.96875 23.871094 0 13.179688 13.417969 23.867188 29.96875 23.867188 16.554688 0 29.972657-10.6875 29.972657-23.867188zm0 0" fill="#ff83b4"/><path d="m304.773438 301.535156c0-13.183594-13.417969-23.871094-29.96875-23.871094-16.554688 0-29.972657 10.6875-29.972657 23.871094 0 13.179688 13.417969 23.867188 29.972657 23.867188 16.550781 0 29.96875-10.6875 29.96875-23.867188zm0 0" fill="#ff83b4"/><g fill="#ffaa75"><path d="m195.210938 154.648438c0 9.699218-7.867188 17.566406-17.566407 17.566406-9.703125 0-17.570312-7.867188-17.570312-17.566406 0-9.703126 7.867187-17.570313 17.570312-17.570313 9.699219 0 17.566407 7.867187 17.566407 17.570313zm0 0"/><path d="m142.792969 201.554688c0 9.699218-7.863281 17.566406-17.566407 17.566406-9.703124 0-17.566406-7.867188-17.566406-17.566406 0-9.703126 7.863282-17.570313 17.566406-17.570313 9.703126 0 17.566407 7.867187 17.566407 17.570313zm0 0"/><path d="m231.996094 205.058594c0 9.703125-7.863282 17.566406-17.566406 17.566406-9.699219 0-17.566407-7.863281-17.566407-17.566406s7.867188-17.566406 17.566407-17.566406c9.703124 0 17.566406 7.863281 17.566406 17.566406zm0 0"/></g><path d="m253.964844 268.480469v12.449219c0 4.144531 3.355468 7.5 7.5 7.5 4.140625 0 7.5-3.355469 7.5-7.5v-12.449219c0-4.140625-3.355469-7.5-7.5-7.5-4.144532 0-7.5 3.359375-7.5 7.5zm0 0"/><path d="m92.660156 268.480469v12.449219c0 4.144531 3.359375 7.5 7.5 7.5 4.144532 0 7.5-3.355469 7.5-7.5v-12.449219c0-4.140625-3.355468-7.5-7.5-7.5-4.140625 0-7.5 3.359375-7.5 7.5zm0 0"/><path d="m160.382812 265.933594c-8.363281 0-15.167968 6.804687-15.167968 15.171875v20.429687c0 19.628906 15.96875 35.597656 35.597656 35.597656s35.597656-15.96875 35.597656-35.597656v-20.429687c0-8.367188-6.804687-15.171875-15.167968-15.171875zm41.027344 15.171875v20.429687c0 11.359375-9.238281 20.601563-20.597656 20.601563s-20.597656-9.242188-20.597656-20.601563v-20.429687c0-.09375 41.195312-.09375 41.195312 0zm0 0"/><path d="m507.441406 236.246094c-4.792968-10.992188-12.890625-19.898438-23.175781-25.664063 2.605469-26.546875-8.347656-44.316406-23.625-54.449219-4.089844-2.710937-6.089844-7.632812-5.105469-12.535156 2.921875-14.5-.054687-29.210937-8.378906-41.429687-11.167969-16.398438-30.371094-25.429688-50.164062-23.5625-4.648438.4375-9.023438-2.179688-11.152344-6.671875-7.414063-15.636719-21.894532-26.695313-38.507813-30.070313-5.90625-23.945312-27.65625-41.363281-52.8125-41.363281-17.171875 0-33.394531 8.257812-43.59375 21.871094-24.226562-5.527344-49.59375.976562-68.433593 18.132812-5.8125 5.292969-14.480469 5.710938-20.613282.996094-14.230468-10.945312-31.992187-16.550781-50.007812-15.773438-4.136719.179688-7.347656 3.675782-7.171875 7.816407.179687 4.136719 3.675781 7.355469 7.816406 7.171875 14.492187-.625 28.78125 3.878906 40.21875 12.675781 11.898437 9.15625 28.660156 8.398437 39.855469-1.796875 17.558594-15.988281 42.164062-20.488281 64.21875-11.746094 16.5 6.542969 29.382812 19.890625 35.347656 36.628906 4.917969 13.8125 18.535156 22.433594 33.132812 20.957032 23.625-2.394532 46.074219 8.644531 58.585938 28.800781 8.695312 14.007813 11.394531 30.5625 7.609375 46.613281-3.257813 13.8125 3.578125 28.140625 16.625 34.84375 20.664063 10.617188 33.503906 31.628906 33.503906 54.839844 0 33.976562-27.640625 61.621094-61.617187 61.621094-1.863282 0-6.429688-.761719-16.558594-5.472656-1.308594-4.90625-2.015625-46.175782-2.015625-46.175782 0-15.21875-1.898437-30.34375-5.640625-44.949218-1.027344-4.011719-5.109375-6.4375-9.125-5.40625-4.011719 1.027343-6.429688 5.113281-5.402344 9.128906 3.429688 13.390625 5.167969 27.261718 5.167969 41.226562v30.804688c0 24.390625 11.746094 46.089844 29.875 59.742187h-311.273437c-27.472657 0-49.820313-22.351562-49.820313-49.824219v-40.722656c0-91.320312 74.292969-165.617187 165.609375-165.617187 32.09375 0 63.21875 9.1875 90.011719 26.574219 26.113281 16.945312 46.878906 40.761718 60.046875 68.882812 1.757812 3.75 6.21875 5.367188 9.976562 3.609375 3.75-1.753906 5.367188-6.21875 3.609375-9.972656-14.363281-30.660157-37-56.632813-65.46875-75.101563-29.230469-18.96875-63.179687-28.992187-98.175781-28.992187-44.828125 0-85.886719 16.421875-117.496094 43.558593-6.726562-10.53125-10.132812-22.957031-9.652344-35.597656.808594-21.042968 12.273438-40.039062 30.671876-50.816406 3.574218-2.089844 4.773437-6.6875 2.683593-10.261719-2.09375-3.574219-6.707031-4.800781-10.261719-2.679687-38.6875 23.070312-38.136718 65.386718-38.132812 66.484375-22.652344 6.859375-38.625 28.015625-38.625 52.074219 0 15.335937 6.550781 29.957031 17.769531 40.203124-11.253906 23.535157-17.566406 49.871094-17.566406 77.652344v40.722656c0 35.746094 29.078125 64.824219 64.820313 64.824219h360.808593c35.742188 0 64.820313-29.078125 64.820313-64.824219v-12.078124c7.617187-5.820313 13.796875-13.710938 17.550781-23.265626 5.3125-13.527343 5.042969-28.3125-.761719-41.636718zm-492.441406-81.597656c0-16.449219 10.304688-31.019532 25.25-36.78125 2.074219 9.992187 6.128906 19.507812 11.964844 27.949218-10.394532 10.550782-19.496094 22.367188-27.066406 35.195313-6.445313-7.175781-10.148438-16.566407-10.148438-26.363281zm251.195312-127.089844c7.351563-7.578125 17.574219-12.058594 28.324219-12.058594 16.640625 0 31.226563 10.519531 36.890625 25.546875-12.332031 1.175781-23.808594 6.503906-32.640625 15.03125-7.847656-12.363281-19.121093-22.3125-32.574219-28.519531zm148.765626 166.789062c-6.898438-3.542968-10.550782-10.96875-8.875-18.054687 4.707031-19.960938 1.347656-40.546875-9.464844-57.96875-15.558594-25.066407-43.496094-38.980469-72.84375-35.816407-13.015625 1.402344-17.75-11.722656-17.875-12.050781 7.472656-9.242187 18.707031-14.683593 30.699218-14.683593 15.171876 0 29.179688 8.867187 35.683594 22.585937 4.785156 10.101563 15.277344 16.203125 26.113282 15.179687 14.335937-1.347656 28.269531 5.191407 36.363281 17.074219 6.03125 8.855469 8.1875 19.515625 6.070312 30.023438-2.199219 10.910156 2.320313 21.898437 11.519531 28 11.074219 7.34375 17.6875 19.648437 17.6875 32.917969 0 13.683593-7.199218 26.3125-18.511718 33.445312-6.628906-17.285156-19.425782-31.847656-36.566406-40.652344zm10.871093 168.703125s-34.871093 1.660157-53.167969-24.921875c28.550782 3.355469 53.683594-10.5625 67.71875-28.527344 17.183594 6.546876 35.269532-.335937 35.269532-.335937 1.886718 30.109375-22.347656 53.785156-49.820313 53.785156zm68.410157-90.652343c-7.226563 18.390624-26.832032 28.3125-45.535157 23.984374 10.417969-17.03125 7.546875-42.316406 6.871094-46.429687 10.53125-5.464844 18.886719-14.222656 23.972656-24.675781 6.191407 4.144531 11.089844 9.96875 14.140625 16.964844 4.203125 9.648437 4.398438 20.359374.550782 30.15625zm0 0"/></svg>